<mxfile host="drawio-plugin" modified="2023-02-04T00:18:24.343Z" agent="5.0 (Windows NT 6.2; Win64; x64) AppleWebKit/537.36 (KHTML, like Gecko) Chrome/97.0.4692.45 Safari/537.36" etag="3TssTs4QlWBrarXqtmyW" version="20.5.3" type="embed"><diagram id="23iRSUPoRavnBvh4doch" name="Page-1"><mxGraphModel dx="1270" dy="855" grid="1" gridSize="10" guides="1" tooltips="1" connect="0" arrows="0" fold="1" page="1" pageScale="1" pageWidth="827" pageHeight="1169" math="0" shadow="0"><root><mxCell id="0"/><mxCell id="1" parent="0"/><mxCell id="2" value="" style="dashed=0;shape=rect;fillColor=#ffffff;strokeColor=none;" parent="1" vertex="1"><mxGeometry y="40" width="358" height="642" as="geometry"/></mxCell><mxCell id="3" value="12:30" style="dashed=0;shape=rect;align=right;fillColor=#00A0B4;strokeColor=none;fontColor=#FFFFFF;spacingRight=4;spacingTop=1;fontStyle=0;fontSize=13;resizeWidth=1;" parent="2" vertex="1"><mxGeometry width="360" height="24" relative="1" as="geometry"/></mxCell><mxCell id="4" value="" style="dashed=0;shape=mxgraph.gmdl.top_bar;strokeColor=none;" parent="3" vertex="1"><mxGeometry x="1" y="0.5" width="46" height="14" relative="1" as="geometry"><mxPoint x="-92" y="-7" as="offset"/></mxGeometry></mxCell><mxCell id="5" value="           Ресторан &#10;&#10;  &quot;Найди своё место!&quot; &#10;&#10;Высокая внеземная кухня" style="dashed=0;shape=rect;strokeColor=#d6b656;fillColor=#fff2cc;resizeWidth=1;fontSize=20;spacingTop=9;verticalAlign=top;align=left;spacingLeft=72;gradientColor=#ffd966;fontColor=#000000;fontStyle=0" parent="2" vertex="1"><mxGeometry width="359" height="610" relative="1" as="geometry"><mxPoint y="24" as="offset"/></mxGeometry></mxCell><mxCell id="6" value="" style="dashed=0;shape=mxgraph.gmdl.preferences;strokeColor=none;fillColor=#ffffff;" parent="5" vertex="1"><mxGeometry width="24" height="16" relative="1" as="geometry"><mxPoint x="16" y="20" as="offset"/></mxGeometry></mxCell><mxCell id="10" value="" style="dashed=0;shape=rect;strokeColor=none;fillColor=#F1FB8F;resizeWidth=1;" parent="5" vertex="1"><mxGeometry y="1" width="118.01381215469613" height="4" relative="1" as="geometry"><mxPoint y="-3" as="offset"/></mxGeometry></mxCell><mxCell id="11" value="" style="dashed=0;shape=mxgraph.gmdl.search;strokeColor=#ffffff;fillColor=none;strokeWidth=2;" parent="5" vertex="1"><mxGeometry x="1" width="16" height="16" relative="1" as="geometry"><mxPoint x="-65" y="20" as="offset"/></mxGeometry></mxCell><mxCell id="12" value="" style="dashed=0;shape=mxgraph.gmdl.settings;strokeColor=none;fillColor=#ffffff;" parent="5" vertex="1"><mxGeometry x="1" width="5" height="16" relative="1" as="geometry"><mxPoint x="-24" y="20" as="offset"/></mxGeometry></mxCell><mxCell id="13" value="" style="dashed=0;shape=rect;strokeColor=none;fillColor=#000000;resizeWidth=1;" parent="5" vertex="1"><mxGeometry y="1" width="358" height="48" relative="1" as="geometry"><mxPoint x="1" y="-44" as="offset"/></mxGeometry></mxCell><mxCell id="14" value="" style="dashed=0;shape=mxgraph.gmdl.back;strokeColor=#ffffff;fillColor=#000000;strokeWidth=2;" parent="13" vertex="1"><mxGeometry x="0.25" y="0.5" width="14" height="14" relative="1" as="geometry"><mxPoint x="-7" y="-7" as="offset"/></mxGeometry></mxCell><mxCell id="15" value="" style="shape=ellipse;strokeColor=#ffffff;fillColor=#000000;strokeWidth=2;" parent="13" vertex="1"><mxGeometry x="0.5" y="0.5" width="14" height="14" relative="1" as="geometry"><mxPoint x="-7" y="-7" as="offset"/></mxGeometry></mxCell><mxCell id="16" value="" style="shape=rect;strokeColor=#ffffff;fillColor=#000000;strokeWidth=2;" parent="13" vertex="1"><mxGeometry x="0.75" y="0.5" width="14" height="14" relative="1" as="geometry"><mxPoint x="-7" y="-7" as="offset"/></mxGeometry></mxCell><mxCell id="134" value="Логин:" style="dashed=0;shape=rect;fillColor=none;strokeColor=none;verticalLabelPosition=middle;align=left;verticalAlign=middle;fontSize=15;spacingLeft=72;fontColor=#000000;labelBackgroundColor=none;" parent="5" vertex="1"><mxGeometry y="299.62" width="130" height="30" as="geometry"/></mxCell><mxCell id="142" value="&lt;font&gt;Login&lt;/font&gt;" style="strokeWidth=1;shadow=0;dashed=0;align=center;html=1;shape=mxgraph.mockup.forms.comboBox;strokeColor=#999999;fillColor=#ddeeff;align=left;fillColor2=#67AB9F;mainText=;fontColor=#CCCCCC;fontSize=17;spacingLeft=3;labelBackgroundColor=none;labelBorderColor=none;" parent="5" vertex="1"><mxGeometry x="10" y="329.62" width="340" height="30.38" as="geometry"/></mxCell><mxCell id="140" value="Пароль:" style="dashed=0;shape=rect;fillColor=none;strokeColor=none;verticalLabelPosition=middle;align=left;verticalAlign=middle;fontSize=15;spacingLeft=72;fontColor=#000000;labelBackgroundColor=none;" parent="5" vertex="1"><mxGeometry y="360" width="130" height="30" as="geometry"/></mxCell><mxCell id="143" value="&lt;font color=&quot;#cccccc&quot;&gt;Password&lt;/font&gt;" style="strokeWidth=1;shadow=0;dashed=0;align=center;html=1;shape=mxgraph.mockup.forms.comboBox;strokeColor=#999999;fillColor=#ddeeff;align=left;fillColor2=#67AB9F;mainText=;fontColor=#666666;fontSize=17;spacingLeft=3;labelBackgroundColor=none;" parent="5" vertex="1"><mxGeometry x="10" y="389.62" width="340" height="30" as="geometry"/></mxCell><mxCell id="144" value="Запомнить меня" style="strokeWidth=1;shadow=0;dashed=0;align=center;html=1;shape=mxgraph.mockup.forms.rrect;rSize=0;fillColor=#eeeeee;strokeColor=#999999;gradientColor=#cccccc;align=left;spacingLeft=4;fontSize=17;fontColor=#666666;labelPosition=right;labelBackgroundColor=none;" parent="5" vertex="1"><mxGeometry x="11" y="446" width="15" height="15" as="geometry"/></mxCell><mxCell id="145" value="Войти" style="dashed=0;align=center;fontSize=12;shape=rect;fillColor=#67AB9F;strokeColor=none;fontStyle=1;shadow=1;labelBackgroundColor=none;fontColor=#000000;" parent="5" vertex="1"><mxGeometry x="10" y="516" width="160" height="36" as="geometry"/></mxCell><mxCell id="146" value="Зарегистрироваться" style="dashed=0;align=center;fontSize=12;shape=rect;fillColor=#67AB9F;strokeColor=none;fontStyle=1;shadow=1;labelBackgroundColor=none;fontColor=#000000;" parent="5" vertex="1"><mxGeometry x="190" y="516" width="160" height="36" as="geometry"/></mxCell><mxCell id="148" value="" style="dashed=0;shape=line;strokeWidth=1;noLabel=1;strokeColor=#eeeeee;opacity=50;labelBackgroundColor=none;labelBorderColor=none;fontColor=#CCCCCC;fillColor=none;" parent="5" vertex="1"><mxGeometry x="7" y="191" width="346" height="10" as="geometry"/></mxCell><mxCell id="147" value="      Загляните в наш ресторан с удобством!&#10; Забронируйте столик заранее на удобное&#10; для Вас время. &#10;&#10;Сейчас в нашем ресторане свободно &#10;5 столиков" style="text;fontColor=#808080;fontSize=16;verticalAlign=top;strokeColor=none;fillColor=none;labelBackgroundColor=none;labelBorderColor=none;align=center;" parent="5" vertex="1"><mxGeometry x="11" y="156" width="339" height="129" as="geometry"/></mxCell><mxCell id="459" value="Восстановить пароль" style="strokeWidth=1;shadow=0;dashed=0;align=center;html=1;shape=mxgraph.mockup.forms.rrect;rSize=0;fillColor=#eeeeee;strokeColor=#999999;gradientColor=#cccccc;align=left;spacingLeft=4;fontSize=17;fontColor=#666666;labelPosition=right;labelBackgroundColor=none;" parent="5" vertex="1"><mxGeometry x="11" y="476" width="15" height="15" as="geometry"/></mxCell><mxCell id="149" value="&amp;lt;br class=&amp;quot;Apple-interchange-newline&amp;quot;&amp;gt;" style="text;whiteSpace=wrap;html=1;fontColor=#CCCCCC;" parent="1" vertex="1"><mxGeometry x="380" y="250" width="240" height="40" as="geometry"/></mxCell><mxCell id="171" value="" style="dashed=0;shape=rect;fillColor=#FFF2CC;strokeColor=none;labelBackgroundColor=none;labelBorderColor=none;fontColor=#67AB9F;gradientColor=#FFD966;" parent="1" vertex="1"><mxGeometry x="400" y="40" width="358" height="642" as="geometry"/></mxCell><mxCell id="172" value="12:30" style="dashed=0;shape=rect;align=right;fillColor=#00A0B4;strokeColor=none;fontColor=#FFFFFF;spacingRight=4;spacingTop=1;fontStyle=0;fontSize=13;resizeWidth=1;labelBackgroundColor=none;labelBorderColor=none;" parent="171" vertex="1"><mxGeometry width="358" height="24" relative="1" as="geometry"/></mxCell><mxCell id="173" value="" style="dashed=0;shape=mxgraph.gmdl.top_bar;strokeColor=none;labelBackgroundColor=none;labelBorderColor=none;fontColor=#67AB9F;fillColor=#67AB9F;" parent="172" vertex="1"><mxGeometry x="1" y="0.5" width="46" height="14" relative="1" as="geometry"><mxPoint x="-92" y="-7" as="offset"/></mxGeometry></mxCell><mxCell id="174" value="Заказ стола" style="dashed=0;shape=rect;strokeColor=none;fillColor=#00BCD4;resizeWidth=1;fontSize=20;fontColor=#FFFFFF;spacingTop=9;verticalAlign=top;align=left;spacingLeft=72;labelBackgroundColor=none;labelBorderColor=none;" parent="171" vertex="1"><mxGeometry width="358" height="104" relative="1" as="geometry"><mxPoint y="24" as="offset"/></mxGeometry></mxCell><mxCell id="175" value="" style="dashed=0;shape=mxgraph.gmdl.preferences;strokeColor=none;fillColor=#ffffff;labelBackgroundColor=none;labelBorderColor=none;fontColor=#67AB9F;" parent="174" vertex="1"><mxGeometry width="24" height="16" relative="1" as="geometry"><mxPoint x="16" y="20" as="offset"/></mxGeometry></mxCell><mxCell id="176" value="ЗОЛОТОЙ ЗАЛ" style="text;fontSize=13;fontColor=#FFFFFF;verticalAlign=middle;align=center;resizeWidth=1;labelBackgroundColor=none;labelBorderColor=none;fillColor=#00A0B4;" parent="174" vertex="1"><mxGeometry y="1" width="119" height="48" relative="1" as="geometry"><mxPoint y="-48" as="offset"/></mxGeometry></mxCell><mxCell id="177" value="НОЧНОЙ ЗАЛ" style="text;fontSize=13;fontColor=#FFFFFF;verticalAlign=middle;align=center;textOpacity=80;resizeWidth=1;labelBackgroundColor=none;labelBorderColor=none;fillColor=#00A0B4;" parent="174" vertex="1"><mxGeometry x="0.33" y="1" width="120" height="48" relative="1" as="geometry"><mxPoint y="-48" as="offset"/></mxGeometry></mxCell><mxCell id="178" value="ПАТИО" style="text;fontSize=13;fontColor=#FFFFFF;verticalAlign=middle;align=center;textOpacity=80;resizeWidth=1;labelBackgroundColor=none;labelBorderColor=none;fillColor=#00A0B4;" parent="174" vertex="1"><mxGeometry x="0.67" y="1" width="119" height="48" relative="1" as="geometry"><mxPoint y="-48" as="offset"/></mxGeometry></mxCell><mxCell id="179" value="" style="dashed=0;shape=rect;strokeColor=none;fillColor=#F1FB8F;resizeWidth=1;labelBackgroundColor=none;labelBorderColor=none;fontColor=#67AB9F;" parent="174" vertex="1"><mxGeometry y="1" width="119" height="4" relative="1" as="geometry"><mxPoint y="-3" as="offset"/></mxGeometry></mxCell><mxCell id="180" value="" style="dashed=0;shape=mxgraph.gmdl.search;strokeColor=#ffffff;fillColor=none;strokeWidth=2;labelBackgroundColor=none;labelBorderColor=none;fontColor=#67AB9F;" parent="174" vertex="1"><mxGeometry x="1" width="16" height="16" relative="1" as="geometry"><mxPoint x="-65" y="20" as="offset"/></mxGeometry></mxCell><mxCell id="181" value="" style="dashed=0;shape=mxgraph.gmdl.settings;strokeColor=none;fillColor=#ffffff;labelBackgroundColor=none;labelBorderColor=none;fontColor=#67AB9F;" parent="174" vertex="1"><mxGeometry x="1" width="5" height="16" relative="1" as="geometry"><mxPoint x="-24" y="20" as="offset"/></mxGeometry></mxCell><mxCell id="182" value="" style="dashed=0;shape=rect;strokeColor=none;fillColor=#000000;resizeWidth=1;labelBackgroundColor=none;labelBorderColor=none;fontColor=#67AB9F;" parent="171" vertex="1"><mxGeometry y="1" width="358" height="48" relative="1" as="geometry"><mxPoint y="-48" as="offset"/></mxGeometry></mxCell><mxCell id="183" value="" style="dashed=0;shape=mxgraph.gmdl.back;strokeColor=#ffffff;fillColor=#000000;strokeWidth=2;labelBackgroundColor=none;labelBorderColor=none;fontColor=#67AB9F;" parent="182" vertex="1"><mxGeometry x="0.25" y="0.5" width="14" height="14" relative="1" as="geometry"><mxPoint x="-7" y="-7" as="offset"/></mxGeometry></mxCell><mxCell id="184" value="" style="shape=ellipse;strokeColor=#ffffff;fillColor=#000000;strokeWidth=2;labelBackgroundColor=none;labelBorderColor=none;fontColor=#67AB9F;" parent="182" vertex="1"><mxGeometry x="0.5" y="0.5" width="14" height="14" relative="1" as="geometry"><mxPoint x="-7" y="-7" as="offset"/></mxGeometry></mxCell><mxCell id="185" value="" style="shape=rect;strokeColor=#ffffff;fillColor=#000000;strokeWidth=2;labelBackgroundColor=none;labelBorderColor=none;fontColor=#67AB9F;" parent="182" vertex="1"><mxGeometry x="0.75" y="0.5" width="14" height="14" relative="1" as="geometry"><mxPoint x="-7" y="-7" as="offset"/></mxGeometry></mxCell><mxCell id="188" value="" style="verticalLabelPosition=bottom;shadow=0;dashed=0;align=center;html=1;verticalAlign=top;strokeWidth=1;shape=mxgraph.mockup.navigation.scrollBar;strokeColor=#999999;barPos=20;fillColor2=#00A0B4;strokeColor2=none;labelBackgroundColor=none;labelBorderColor=none;fontColor=#67AB9F;fillColor=#FFF2CC;gradientColor=#FFD966;" parent="171" vertex="1"><mxGeometry x="19" y="280" width="320" height="20" as="geometry"/></mxCell><mxCell id="192" value="&gt;" style="strokeWidth=1;shadow=0;dashed=0;align=center;html=1;shape=mxgraph.mockup.forms.rrect;rSize=4;strokeColor=#999999;fontColor=#008cff;fontSize=19;fontStyle=1;labelBackgroundColor=none;labelBorderColor=none;fillColor=#FFF2CC;gradientColor=#FFD966;" parent="171" vertex="1"><mxGeometry x="320" y="195" width="25" height="20" as="geometry"/></mxCell><mxCell id="191" value="&lt;" style="strokeWidth=1;shadow=0;dashed=0;align=center;html=1;shape=mxgraph.mockup.forms.rrect;rSize=4;strokeColor=#999999;fontColor=#008cff;fontSize=19;fontStyle=1;labelBackgroundColor=none;labelBorderColor=none;fillColor=#FFF2CC;gradientColor=#FFD966;" parent="171" vertex="1"><mxGeometry x="10" y="195" width="25" height="20" as="geometry"/></mxCell><mxCell id="295" value="" style="strokeWidth=1;shadow=0;dashed=0;align=center;html=1;shape=mxgraph.mockup.forms.rrect;rSize=5;strokeColor=#999999;fillColor=#ffffff;labelBackgroundColor=none;labelBorderColor=none;fontColor=#67AB9F;" parent="171" vertex="1"><mxGeometry x="190" y="360" width="160" height="175" as="geometry"/></mxCell><mxCell id="296" value="&lt;b&gt;October 2022&lt;/b&gt;" style="strokeWidth=1;shadow=0;dashed=0;align=center;html=1;shape=mxgraph.mockup.forms.anchor;fontColor=#999999;labelBackgroundColor=none;labelBorderColor=none;fillColor=#FFF2CC;gradientColor=#FFD966;" parent="295" vertex="1"><mxGeometry x="30" y="8" width="100" height="20" as="geometry"/></mxCell><mxCell id="297" value="&lt;" style="strokeWidth=1;shadow=0;dashed=0;align=center;html=1;shape=mxgraph.mockup.forms.rrect;rSize=4;strokeColor=#999999;fontColor=#008cff;fontSize=19;fontStyle=1;labelBackgroundColor=none;labelBorderColor=none;fillColor=#FFF2CC;gradientColor=#FFD966;" parent="295" vertex="1"><mxGeometry x="8" y="8" width="25" height="20" as="geometry"/></mxCell><mxCell id="298" value="&gt;" style="strokeWidth=1;shadow=0;dashed=0;align=center;html=1;shape=mxgraph.mockup.forms.rrect;rSize=4;strokeColor=#999999;fontColor=#008cff;fontSize=19;fontStyle=1;labelBackgroundColor=none;labelBorderColor=none;fillColor=#FFF2CC;gradientColor=#FFD966;" parent="295" vertex="1"><mxGeometry x="127" y="8" width="25" height="20" as="geometry"/></mxCell><mxCell id="299" value="Mo" style="strokeWidth=1;shadow=0;dashed=0;align=center;html=1;shape=mxgraph.mockup.forms.anchor;fontColor=#999999;labelBackgroundColor=none;labelBorderColor=none;fillColor=#FFF2CC;gradientColor=#FFD966;" parent="295" vertex="1"><mxGeometry x="10" y="28" width="20" height="20" as="geometry"/></mxCell><mxCell id="300" value="Tu" style="strokeWidth=1;shadow=0;dashed=0;align=center;html=1;shape=mxgraph.mockup.forms.anchor;fontColor=#999999;labelBackgroundColor=none;labelBorderColor=none;fillColor=#FFF2CC;gradientColor=#FFD966;" parent="295" vertex="1"><mxGeometry x="30" y="28" width="20" height="20" as="geometry"/></mxCell><mxCell id="301" value="We" style="strokeWidth=1;shadow=0;dashed=0;align=center;html=1;shape=mxgraph.mockup.forms.anchor;fontColor=#999999;labelBackgroundColor=none;labelBorderColor=none;fillColor=#FFF2CC;gradientColor=#FFD966;" parent="295" vertex="1"><mxGeometry x="50" y="28" width="20" height="20" as="geometry"/></mxCell><mxCell id="302" value="Th" style="strokeWidth=1;shadow=0;dashed=0;align=center;html=1;shape=mxgraph.mockup.forms.anchor;fontColor=#999999;labelBackgroundColor=none;labelBorderColor=none;fillColor=#FFF2CC;gradientColor=#FFD966;" parent="295" vertex="1"><mxGeometry x="70" y="28" width="20" height="20" as="geometry"/></mxCell><mxCell id="303" value="Fr" style="strokeWidth=1;shadow=0;dashed=0;align=center;html=1;shape=mxgraph.mockup.forms.anchor;fontColor=#999999;labelBackgroundColor=none;labelBorderColor=none;fillColor=#FFF2CC;gradientColor=#FFD966;" parent="295" vertex="1"><mxGeometry x="90" y="28" width="20" height="20" as="geometry"/></mxCell><mxCell id="304" value="Sa" style="strokeWidth=1;shadow=0;dashed=0;align=center;html=1;shape=mxgraph.mockup.forms.anchor;fontColor=#999999;labelBackgroundColor=none;labelBorderColor=none;fillColor=#FFF2CC;gradientColor=#FFD966;" parent="295" vertex="1"><mxGeometry x="110" y="28" width="20" height="20" as="geometry"/></mxCell><mxCell id="305" value="Su" style="strokeWidth=1;shadow=0;dashed=0;align=center;html=1;shape=mxgraph.mockup.forms.anchor;fontColor=#999999;labelBackgroundColor=none;labelBorderColor=none;fillColor=#FFF2CC;gradientColor=#FFD966;" parent="295" vertex="1"><mxGeometry x="130" y="28" width="20" height="20" as="geometry"/></mxCell><mxCell id="306" value="1" style="strokeWidth=1;shadow=0;dashed=0;align=center;html=1;shape=mxgraph.mockup.forms.rrect;rSize=0;strokeColor=#999999;fontColor=#999999;labelBackgroundColor=none;labelBorderColor=none;fillColor=#FFF2CC;gradientColor=#FFD966;" parent="295" vertex="1"><mxGeometry x="10" y="48" width="20" height="20" as="geometry"/></mxCell><mxCell id="307" value="2" style="strokeWidth=1;shadow=0;dashed=0;align=center;html=1;shape=mxgraph.mockup.forms.rrect;rSize=0;strokeColor=#999999;fontColor=#999999;labelBackgroundColor=none;labelBorderColor=none;fillColor=#FFF2CC;gradientColor=#FFD966;" parent="295" vertex="1"><mxGeometry x="30" y="48" width="20" height="20" as="geometry"/></mxCell><mxCell id="308" value="3" style="strokeWidth=1;shadow=0;dashed=0;align=center;html=1;shape=mxgraph.mockup.forms.rrect;rSize=0;strokeColor=#999999;fontColor=#999999;labelBackgroundColor=none;labelBorderColor=none;fillColor=#FFF2CC;gradientColor=#FFD966;" parent="295" vertex="1"><mxGeometry x="50" y="48" width="20" height="20" as="geometry"/></mxCell><mxCell id="309" value="4" style="strokeWidth=1;shadow=0;dashed=0;align=center;html=1;shape=mxgraph.mockup.forms.rrect;rSize=0;strokeColor=#999999;fontColor=#999999;labelBackgroundColor=none;labelBorderColor=none;fillColor=#FFF2CC;gradientColor=#FFD966;" parent="295" vertex="1"><mxGeometry x="70" y="48" width="20" height="20" as="geometry"/></mxCell><mxCell id="310" value="5" style="strokeWidth=1;shadow=0;dashed=0;align=center;html=1;shape=mxgraph.mockup.forms.rrect;rSize=0;strokeColor=#999999;fontColor=#999999;labelBackgroundColor=none;labelBorderColor=none;fillColor=#FFF2CC;gradientColor=#FFD966;" parent="295" vertex="1"><mxGeometry x="90" y="48" width="20" height="20" as="geometry"/></mxCell><mxCell id="311" value="6" style="strokeWidth=1;shadow=0;dashed=0;align=center;html=1;shape=mxgraph.mockup.forms.rrect;rSize=0;strokeColor=#999999;fontColor=#999999;labelBackgroundColor=none;labelBorderColor=none;fillColor=#FFF2CC;gradientColor=#FFD966;" parent="295" vertex="1"><mxGeometry x="110" y="48" width="20" height="20" as="geometry"/></mxCell><mxCell id="312" value="7" style="strokeWidth=1;shadow=0;dashed=0;align=center;html=1;shape=mxgraph.mockup.forms.rrect;rSize=0;strokeColor=#999999;fontColor=#999999;labelBackgroundColor=none;labelBorderColor=none;fillColor=#FFF2CC;gradientColor=#FFD966;" parent="295" vertex="1"><mxGeometry x="130" y="48" width="20" height="20" as="geometry"/></mxCell><mxCell id="313" value="8" style="strokeWidth=1;shadow=0;dashed=0;align=center;html=1;shape=mxgraph.mockup.forms.rrect;rSize=0;strokeColor=#999999;fontColor=#999999;labelBackgroundColor=none;labelBorderColor=none;fillColor=#FFF2CC;gradientColor=#FFD966;" parent="295" vertex="1"><mxGeometry x="10" y="68" width="20" height="20" as="geometry"/></mxCell><mxCell id="314" value="9" style="strokeWidth=1;shadow=0;dashed=0;align=center;html=1;shape=mxgraph.mockup.forms.rrect;rSize=0;strokeColor=#999999;fontColor=#999999;labelBackgroundColor=none;labelBorderColor=none;fillColor=#FFF2CC;gradientColor=#FFD966;" parent="295" vertex="1"><mxGeometry x="30" y="68" width="20" height="20" as="geometry"/></mxCell><mxCell id="315" value="10" style="strokeWidth=1;shadow=0;dashed=0;align=center;html=1;shape=mxgraph.mockup.forms.rrect;rSize=0;strokeColor=#999999;fontColor=#999999;labelBackgroundColor=none;labelBorderColor=none;fillColor=#FFF2CC;gradientColor=#FFD966;" parent="295" vertex="1"><mxGeometry x="50" y="68" width="20" height="20" as="geometry"/></mxCell><mxCell id="316" value="11" style="strokeWidth=1;shadow=0;dashed=0;align=center;html=1;shape=mxgraph.mockup.forms.rrect;rSize=0;strokeColor=#999999;fontColor=#999999;labelBackgroundColor=none;labelBorderColor=none;fillColor=#FFF2CC;gradientColor=#FFD966;" parent="295" vertex="1"><mxGeometry x="70" y="68" width="20" height="20" as="geometry"/></mxCell><mxCell id="317" value="12" style="strokeWidth=1;shadow=0;dashed=0;align=center;html=1;shape=mxgraph.mockup.forms.rrect;rSize=0;strokeColor=#999999;fontColor=#999999;labelBackgroundColor=none;labelBorderColor=none;fillColor=#FFF2CC;gradientColor=#FFD966;" parent="295" vertex="1"><mxGeometry x="90" y="68" width="20" height="20" as="geometry"/></mxCell><mxCell id="318" value="13" style="strokeWidth=1;shadow=0;dashed=0;align=center;html=1;shape=mxgraph.mockup.forms.rrect;rSize=0;strokeColor=#999999;fontColor=#999999;labelBackgroundColor=none;labelBorderColor=none;fillColor=#FFF2CC;gradientColor=#FFD966;" parent="295" vertex="1"><mxGeometry x="110" y="68" width="20" height="20" as="geometry"/></mxCell><mxCell id="319" value="14" style="strokeWidth=1;shadow=0;dashed=0;align=center;html=1;shape=mxgraph.mockup.forms.rrect;rSize=0;strokeColor=#999999;fontColor=#999999;labelBackgroundColor=none;labelBorderColor=none;fillColor=#FFF2CC;gradientColor=#FFD966;" parent="295" vertex="1"><mxGeometry x="130" y="68" width="20" height="20" as="geometry"/></mxCell><mxCell id="320" value="15" style="strokeWidth=1;shadow=0;dashed=0;align=center;html=1;shape=mxgraph.mockup.forms.rrect;rSize=0;strokeColor=#999999;fontColor=#999999;labelBackgroundColor=none;labelBorderColor=none;fillColor=#FFF2CC;gradientColor=#FFD966;" parent="295" vertex="1"><mxGeometry x="10" y="88" width="20" height="20" as="geometry"/></mxCell><mxCell id="321" value="16" style="strokeWidth=1;shadow=0;dashed=0;align=center;html=1;shape=mxgraph.mockup.forms.rrect;rSize=0;strokeColor=#999999;fontColor=#999999;labelBackgroundColor=none;labelBorderColor=none;fillColor=#FFF2CC;gradientColor=#FFD966;" parent="295" vertex="1"><mxGeometry x="30" y="88" width="20" height="20" as="geometry"/></mxCell><mxCell id="322" value="17" style="strokeWidth=1;shadow=0;dashed=0;align=center;html=1;shape=mxgraph.mockup.forms.rrect;rSize=0;strokeColor=#999999;fontColor=#999999;labelBackgroundColor=none;labelBorderColor=none;fillColor=#FFF2CC;gradientColor=#FFD966;" parent="295" vertex="1"><mxGeometry x="50" y="88" width="20" height="20" as="geometry"/></mxCell><mxCell id="323" value="18" style="strokeWidth=1;shadow=0;dashed=0;align=center;html=1;shape=mxgraph.mockup.forms.rrect;rSize=0;strokeColor=#999999;fontColor=#999999;labelBackgroundColor=none;labelBorderColor=none;fillColor=#FFF2CC;gradientColor=#FFD966;" parent="295" vertex="1"><mxGeometry x="70" y="88" width="20" height="20" as="geometry"/></mxCell><mxCell id="324" value="19" style="strokeWidth=1;shadow=0;dashed=0;align=center;html=1;shape=mxgraph.mockup.forms.rrect;rSize=0;strokeColor=#999999;fontColor=#999999;labelBackgroundColor=none;labelBorderColor=none;fillColor=#FFF2CC;gradientColor=#FFD966;" parent="295" vertex="1"><mxGeometry x="90" y="88" width="20" height="20" as="geometry"/></mxCell><mxCell id="325" value="20" style="strokeWidth=1;shadow=0;dashed=0;align=center;html=1;shape=mxgraph.mockup.forms.rrect;rSize=0;strokeColor=#999999;fontColor=#999999;labelBackgroundColor=none;labelBorderColor=none;fillColor=#FFF2CC;gradientColor=#FFD966;" parent="295" vertex="1"><mxGeometry x="110" y="88" width="20" height="20" as="geometry"/></mxCell><mxCell id="326" value="21" style="strokeWidth=1;shadow=0;dashed=0;align=center;html=1;shape=mxgraph.mockup.forms.rrect;rSize=0;strokeColor=#999999;fontColor=#999999;labelBackgroundColor=none;labelBorderColor=none;fillColor=#FFF2CC;gradientColor=#FFD966;" parent="295" vertex="1"><mxGeometry x="130" y="88" width="20" height="20" as="geometry"/></mxCell><mxCell id="327" value="22" style="strokeWidth=1;shadow=0;dashed=0;align=center;html=1;shape=mxgraph.mockup.forms.rrect;rSize=0;strokeColor=#999999;fontColor=#999999;labelBackgroundColor=none;labelBorderColor=none;fillColor=#FFF2CC;gradientColor=#FFD966;" parent="295" vertex="1"><mxGeometry x="10" y="108" width="20" height="20" as="geometry"/></mxCell><mxCell id="328" value="23" style="strokeWidth=1;shadow=0;dashed=0;align=center;html=1;shape=mxgraph.mockup.forms.rrect;rSize=0;strokeColor=#999999;fontColor=#999999;labelBackgroundColor=none;labelBorderColor=none;fillColor=#FFF2CC;gradientColor=#FFD966;" parent="295" vertex="1"><mxGeometry x="30" y="108" width="20" height="20" as="geometry"/></mxCell><mxCell id="329" value="25" style="strokeWidth=1;shadow=0;dashed=0;align=center;html=1;shape=mxgraph.mockup.forms.rrect;rSize=0;strokeColor=#999999;fontColor=#999999;labelBackgroundColor=none;labelBorderColor=none;fillColor=#FFF2CC;gradientColor=#FFD966;" parent="295" vertex="1"><mxGeometry x="70" y="108" width="20" height="20" as="geometry"/></mxCell><mxCell id="330" value="26" style="strokeWidth=1;shadow=0;dashed=0;align=center;html=1;shape=mxgraph.mockup.forms.rrect;rSize=0;strokeColor=#999999;fontColor=#999999;labelBackgroundColor=none;labelBorderColor=none;fillColor=#FFF2CC;gradientColor=#FFD966;" parent="295" vertex="1"><mxGeometry x="90" y="108" width="20" height="20" as="geometry"/></mxCell><mxCell id="331" value="27" style="strokeWidth=1;shadow=0;dashed=0;align=center;html=1;shape=mxgraph.mockup.forms.rrect;rSize=0;strokeColor=#999999;fontColor=#999999;labelBackgroundColor=none;labelBorderColor=none;fillColor=#FFF2CC;gradientColor=#FFD966;" parent="295" vertex="1"><mxGeometry x="110" y="108" width="20" height="20" as="geometry"/></mxCell><mxCell id="332" value="28" style="strokeWidth=1;shadow=0;dashed=0;align=center;html=1;shape=mxgraph.mockup.forms.rrect;rSize=0;strokeColor=#999999;fontColor=#999999;labelBackgroundColor=none;labelBorderColor=none;fillColor=#FFF2CC;gradientColor=#FFD966;" parent="295" vertex="1"><mxGeometry x="130" y="108" width="20" height="20" as="geometry"/></mxCell><mxCell id="333" value="29" style="strokeWidth=1;shadow=0;dashed=0;align=center;html=1;shape=mxgraph.mockup.forms.rrect;rSize=0;strokeColor=#999999;fontColor=#999999;labelBackgroundColor=none;labelBorderColor=none;fillColor=#FFF2CC;gradientColor=#FFD966;" parent="295" vertex="1"><mxGeometry x="10" y="128" width="20" height="20" as="geometry"/></mxCell><mxCell id="334" value="30" style="strokeWidth=1;shadow=0;dashed=0;align=center;html=1;shape=mxgraph.mockup.forms.rrect;rSize=0;strokeColor=#999999;fontColor=#999999;labelBackgroundColor=none;labelBorderColor=none;fillColor=#FFF2CC;gradientColor=#FFD966;" parent="295" vertex="1"><mxGeometry x="30" y="128" width="20" height="20" as="geometry"/></mxCell><mxCell id="335" value="31" style="strokeWidth=1;shadow=0;dashed=0;align=center;html=1;shape=mxgraph.mockup.forms.rrect;rSize=0;strokeColor=#999999;fontColor=#999999;labelBackgroundColor=none;labelBorderColor=none;fillColor=#FFF2CC;gradientColor=#FFD966;" parent="295" vertex="1"><mxGeometry x="50" y="128" width="20" height="20" as="geometry"/></mxCell><mxCell id="336" value="1" style="strokeWidth=1;shadow=0;dashed=0;align=center;html=1;shape=mxgraph.mockup.forms.rrect;rSize=0;strokeColor=#999999;fontColor=#999999;fillColor=#ddeeff;labelBackgroundColor=none;labelBorderColor=none;" parent="295" vertex="1"><mxGeometry x="70" y="128" width="20" height="20" as="geometry"/></mxCell><mxCell id="337" value="2" style="strokeWidth=1;shadow=0;dashed=0;align=center;html=1;shape=mxgraph.mockup.forms.rrect;rSize=0;strokeColor=#999999;fontColor=#999999;fillColor=#ddeeff;labelBackgroundColor=none;labelBorderColor=none;" parent="295" vertex="1"><mxGeometry x="90" y="128" width="20" height="20" as="geometry"/></mxCell><mxCell id="338" value="3" style="strokeWidth=1;shadow=0;dashed=0;align=center;html=1;shape=mxgraph.mockup.forms.rrect;rSize=0;strokeColor=#999999;fontColor=#999999;fillColor=#ddeeff;labelBackgroundColor=none;labelBorderColor=none;" parent="295" vertex="1"><mxGeometry x="110" y="128" width="20" height="20" as="geometry"/></mxCell><mxCell id="339" value="4" style="strokeWidth=1;shadow=0;dashed=0;align=center;html=1;shape=mxgraph.mockup.forms.rrect;rSize=0;strokeColor=#999999;fontColor=#999999;fillColor=#ddeeff;labelBackgroundColor=none;labelBorderColor=none;" parent="295" vertex="1"><mxGeometry x="130" y="128" width="20" height="20" as="geometry"/></mxCell><mxCell id="340" value="5" style="strokeWidth=1;shadow=0;dashed=0;align=center;html=1;shape=mxgraph.mockup.forms.rrect;rSize=0;strokeColor=#999999;fontColor=#999999;fillColor=#ddeeff;labelBackgroundColor=none;labelBorderColor=none;" parent="295" vertex="1"><mxGeometry x="10" y="148" width="20" height="20" as="geometry"/></mxCell><mxCell id="341" value="6" style="strokeWidth=1;shadow=0;dashed=0;align=center;html=1;shape=mxgraph.mockup.forms.rrect;rSize=0;strokeColor=#999999;fontColor=#999999;fillColor=#ddeeff;labelBackgroundColor=none;labelBorderColor=none;" parent="295" vertex="1"><mxGeometry x="30" y="148" width="20" height="20" as="geometry"/></mxCell><mxCell id="342" value="7" style="strokeWidth=1;shadow=0;dashed=0;align=center;html=1;shape=mxgraph.mockup.forms.rrect;rSize=0;strokeColor=#999999;fontColor=#999999;fillColor=#ddeeff;labelBackgroundColor=none;labelBorderColor=none;" parent="295" vertex="1"><mxGeometry x="50" y="148" width="20" height="20" as="geometry"/></mxCell><mxCell id="343" value="8" style="strokeWidth=1;shadow=0;dashed=0;align=center;html=1;shape=mxgraph.mockup.forms.rrect;rSize=0;strokeColor=#999999;fontColor=#999999;fillColor=#ddeeff;labelBackgroundColor=none;labelBorderColor=none;" parent="295" vertex="1"><mxGeometry x="70" y="148" width="20" height="20" as="geometry"/></mxCell><mxCell id="344" value="9" style="strokeWidth=1;shadow=0;dashed=0;align=center;html=1;shape=mxgraph.mockup.forms.rrect;rSize=0;strokeColor=#999999;fontColor=#999999;fillColor=#ddeeff;labelBackgroundColor=none;labelBorderColor=none;" parent="295" vertex="1"><mxGeometry x="90" y="148" width="20" height="20" as="geometry"/></mxCell><mxCell id="345" value="10" style="strokeWidth=1;shadow=0;dashed=0;align=center;html=1;shape=mxgraph.mockup.forms.rrect;rSize=0;strokeColor=#999999;fontColor=#999999;fillColor=#ddeeff;labelBackgroundColor=none;labelBorderColor=none;" parent="295" vertex="1"><mxGeometry x="110" y="148" width="20" height="20" as="geometry"/></mxCell><mxCell id="346" value="11" style="strokeWidth=1;shadow=0;dashed=0;align=center;html=1;shape=mxgraph.mockup.forms.rrect;rSize=0;strokeColor=#999999;fontColor=#999999;fillColor=#ddeeff;labelBackgroundColor=none;labelBorderColor=none;" parent="295" vertex="1"><mxGeometry x="130" y="148" width="20" height="20" as="geometry"/></mxCell><mxCell id="347" value="24" style="strokeWidth=1;shadow=0;dashed=0;align=center;html=1;shape=mxgraph.mockup.forms.rrect;rSize=0;strokeColor=#ff0000;fontColor=#ffffff;strokeWidth=2;fillColor=#008cff;labelBackgroundColor=none;labelBorderColor=none;" parent="295" vertex="1"><mxGeometry x="50" y="108" width="20" height="20" as="geometry"/></mxCell><mxCell id="359" value="" style="rounded=0;whiteSpace=wrap;html=1;labelBackgroundColor=none;labelBorderColor=none;fontColor=#000000;fillColor=#FFF2CC;gradientColor=#FFD966;" parent="171" vertex="1"><mxGeometry x="42.5" y="140" width="267.5" height="130" as="geometry"/></mxCell><mxCell id="167" value="Бронировать" style="dashed=0;align=center;fontSize=12;shape=rect;fillColor=#67AB9F;strokeColor=none;fontStyle=1;shadow=1;labelBackgroundColor=none;fontColor=#000000;" parent="171" vertex="1"><mxGeometry x="87.5" y="545" width="160" height="36" as="geometry"/></mxCell><mxCell id="361" value="&lt;span style=&quot;font-size: 24px; font-weight: 700; text-align: center;&quot;&gt;Стол № 2&amp;nbsp; &amp;nbsp; &amp;nbsp; &amp;nbsp;&lt;/span&gt;&lt;span style=&quot;background-color: initial;&quot;&gt;&lt;font size=&quot;1&quot; style=&quot;&quot;&gt;&lt;b style=&quot;font-size: 24px;&quot;&gt;6 мест&lt;/b&gt;&lt;/font&gt;&lt;/span&gt;&lt;span style=&quot;font-size: 24px; font-weight: 700; text-align: center;&quot;&gt;&lt;br&gt;&lt;/span&gt;&lt;p&gt;Lorem ipsum dolor sit amet, consectetur adipisicing elit, sed do eiusmod tempor incididunt ut labore et dolore magna aliqua.&lt;/p&gt;" style="text;html=1;strokeColor=none;fillColor=none;spacing=5;spacingTop=-20;whiteSpace=wrap;overflow=hidden;rounded=0;labelBackgroundColor=none;labelBorderColor=none;fontColor=#000000;" parent="171" vertex="1"><mxGeometry x="51.25" y="160" width="250" height="100" as="geometry"/></mxCell><mxCell id="533" value="&lt;font size=&quot;1&quot; style=&quot;&quot;&gt;&lt;b style=&quot;font-size: 12px;&quot;&gt;Выберите дату, время и продолжительность заказа&lt;/b&gt;&lt;/font&gt;" style="text;html=1;strokeColor=none;fillColor=none;align=center;verticalAlign=middle;whiteSpace=wrap;rounded=0;fontSize=24;" parent="171" vertex="1"><mxGeometry x="11.25" y="331" width="330" height="20" as="geometry"/></mxCell><mxCell id="532" value="" style="group" parent="171" vertex="1" connectable="0"><mxGeometry x="10" y="480" width="160" height="55" as="geometry"/></mxCell><mxCell id="523" value="" style="strokeWidth=1;shadow=0;dashed=0;align=center;html=1;shape=mxgraph.mockup.forms.rrect;rSize=5;strokeColor=#999999;fillColor=#ffffff;labelBackgroundColor=none;labelBorderColor=none;fontColor=#67AB9F;container=0;" parent="532" vertex="1"><mxGeometry width="160" height="55" as="geometry"/></mxCell><mxCell id="524" value="&lt;b&gt;Часы&lt;/b&gt;" style="strokeWidth=1;shadow=0;dashed=0;align=center;html=1;shape=mxgraph.mockup.forms.anchor;fontColor=#999999;labelBackgroundColor=none;labelBorderColor=none;fillColor=#FFF2CC;gradientColor=#FFD966;" parent="532" vertex="1"><mxGeometry x="32.5" y="4.571428571428555" width="20" height="11.42857142857143" as="geometry"/></mxCell><mxCell id="525" value="&lt;b&gt;Минуты&lt;/b&gt;" style="strokeWidth=1;shadow=0;dashed=0;align=center;html=1;shape=mxgraph.mockup.forms.anchor;fontColor=#999999;labelBackgroundColor=none;labelBorderColor=none;fillColor=#FFF2CC;gradientColor=#FFD966;" parent="532" vertex="1"><mxGeometry x="107.5" y="4.571428571428555" width="20" height="11.42857142857143" as="geometry"/></mxCell><mxCell id="526" value="&lt;b&gt;&lt;font color=&quot;#000000&quot;&gt;2&lt;/font&gt;&lt;/b&gt;" style="strokeWidth=1;shadow=0;dashed=0;align=center;html=1;shape=mxgraph.mockup.forms.rrect;rSize=0;strokeColor=#999999;fontColor=#999999;labelBackgroundColor=none;labelBorderColor=none;fillColor=#FFF2CC;gradientColor=#FFD966;" parent="532" vertex="1"><mxGeometry x="4" y="22.860000000000014" width="75" height="23.142857142857146" as="geometry"/></mxCell><mxCell id="527" value="&lt;b&gt;&lt;font color=&quot;#000000&quot;&gt;00&lt;/font&gt;&lt;/b&gt;" style="strokeWidth=1;shadow=0;dashed=0;align=center;html=1;shape=mxgraph.mockup.forms.rrect;rSize=0;strokeColor=#999999;fontColor=#999999;labelBackgroundColor=none;labelBorderColor=none;fillColor=#FFF2CC;gradientColor=#FFD966;" parent="532" vertex="1"><mxGeometry x="79" y="23.149999999999977" width="75" height="22.85714285714286" as="geometry"/></mxCell><mxCell id="534" value="&lt;b style=&quot;&quot;&gt;&lt;font color=&quot;#67ab9f&quot; style=&quot;font-size: 15px;&quot;&gt;Здравствуйте, Дмитрий!&lt;/font&gt;&lt;/b&gt;" style="text;html=1;strokeColor=none;fillColor=none;align=center;verticalAlign=middle;whiteSpace=wrap;rounded=0;fontSize=24;" vertex="1" parent="171"><mxGeometry x="14" y="311" width="330" height="20" as="geometry"/></mxCell><mxCell id="360" value="" style="group" parent="171" vertex="1" connectable="0"><mxGeometry x="10" y="360" width="160" height="100" as="geometry"/></mxCell><mxCell id="242" value="" style="strokeWidth=1;shadow=0;dashed=0;align=center;html=1;shape=mxgraph.mockup.forms.rrect;rSize=5;strokeColor=#999999;fillColor=#ffffff;labelBackgroundColor=none;labelBorderColor=none;fontColor=#67AB9F;container=0;" parent="360" vertex="1"><mxGeometry width="160" height="100" as="geometry"/></mxCell><mxCell id="250" value="&lt;b&gt;Часы&lt;/b&gt;" style="strokeWidth=1;shadow=0;dashed=0;align=center;html=1;shape=mxgraph.mockup.forms.anchor;fontColor=#999999;labelBackgroundColor=none;labelBorderColor=none;fillColor=#FFF2CC;gradientColor=#FFD966;" parent="360" vertex="1"><mxGeometry x="32.5" y="4.571428571428572" width="20" height="11.42857142857143" as="geometry"/></mxCell><mxCell id="251" value="&lt;b&gt;Минуты&lt;/b&gt;" style="strokeWidth=1;shadow=0;dashed=0;align=center;html=1;shape=mxgraph.mockup.forms.anchor;fontColor=#999999;labelBackgroundColor=none;labelBorderColor=none;fillColor=#FFF2CC;gradientColor=#FFD966;" parent="360" vertex="1"><mxGeometry x="107.5" y="4.571428571428572" width="20" height="11.42857142857143" as="geometry"/></mxCell><mxCell id="348" value="&lt;b&gt;&lt;font color=&quot;#000000&quot;&gt;23&lt;/font&gt;&lt;/b&gt;" style="strokeWidth=1;shadow=0;dashed=0;align=center;html=1;shape=mxgraph.mockup.forms.rrect;rSize=0;strokeColor=#999999;fontColor=#999999;labelBackgroundColor=none;labelBorderColor=none;fillColor=#FFF2CC;gradientColor=#FFD966;" parent="360" vertex="1"><mxGeometry x="5" y="46.00000000000001" width="75" height="23.142857142857146" as="geometry"/></mxCell><mxCell id="349" value="&lt;b&gt;&lt;font color=&quot;#000000&quot;&gt;10&lt;/font&gt;&lt;/b&gt;" style="strokeWidth=1;shadow=0;dashed=0;align=center;html=1;shape=mxgraph.mockup.forms.rrect;rSize=0;strokeColor=#999999;fontColor=#999999;labelBackgroundColor=none;labelBorderColor=none;fillColor=#FFF2CC;gradientColor=#FFD966;" parent="360" vertex="1"><mxGeometry x="80" y="46.00000000000001" width="75" height="22.85714285714286" as="geometry"/></mxCell><mxCell id="351" value="&lt;b&gt;00&lt;/b&gt;" style="strokeWidth=1;shadow=0;dashed=0;align=center;html=1;shape=mxgraph.mockup.forms.rrect;rSize=0;strokeColor=#999999;fontColor=#999999;labelBackgroundColor=none;labelBorderColor=none;fillColor=#FFF2CC;gradientColor=#FFD966;" parent="360" vertex="1"><mxGeometry x="5" y="68.85714285714286" width="75" height="22.85714285714286" as="geometry"/></mxCell><mxCell id="352" value="&lt;b&gt;15&lt;/b&gt;" style="strokeWidth=1;shadow=0;dashed=0;align=center;html=1;shape=mxgraph.mockup.forms.rrect;rSize=0;strokeColor=#999999;fontColor=#999999;labelBackgroundColor=none;labelBorderColor=none;fillColor=#FFF2CC;gradientColor=#FFD966;" parent="360" vertex="1"><mxGeometry x="80" y="68.85714285714286" width="75" height="22.85714285714286" as="geometry"/></mxCell><mxCell id="354" value="&lt;b&gt;22&lt;/b&gt;" style="strokeWidth=1;shadow=0;dashed=0;align=center;html=1;shape=mxgraph.mockup.forms.rrect;rSize=0;strokeColor=#999999;fontColor=#999999;labelBackgroundColor=none;labelBorderColor=none;fillColor=#FFF2CC;gradientColor=#FFD966;" parent="360" vertex="1"><mxGeometry x="5" y="23.142857142857146" width="75" height="22.85714285714286" as="geometry"/></mxCell><mxCell id="355" value="&lt;b&gt;05&lt;/b&gt;" style="strokeWidth=1;shadow=0;dashed=0;align=center;html=1;shape=mxgraph.mockup.forms.rrect;rSize=0;strokeColor=#999999;fontColor=#999999;labelBackgroundColor=none;labelBorderColor=none;fillColor=#FFF2CC;gradientColor=#FFD966;" parent="360" vertex="1"><mxGeometry x="80" y="23.142857142857146" width="75" height="22.85714285714286" as="geometry"/></mxCell><mxCell id="362" value="" style="dashed=0;shape=rect;fillColor=#FFF2CC;strokeColor=none;labelBackgroundColor=none;labelBorderColor=none;fontColor=#67AB9F;gradientColor=#FFD966;" parent="1" vertex="1"><mxGeometry x="800" y="40" width="358" height="642" as="geometry"/></mxCell><mxCell id="363" value="12:30" style="dashed=0;shape=rect;align=right;fillColor=#00A0B4;strokeColor=none;fontColor=#FFFFFF;spacingRight=4;spacingTop=1;fontStyle=0;fontSize=13;resizeWidth=1;labelBackgroundColor=none;labelBorderColor=none;" parent="362" vertex="1"><mxGeometry width="358" height="24" relative="1" as="geometry"/></mxCell><mxCell id="364" value="" style="dashed=0;shape=mxgraph.gmdl.top_bar;strokeColor=none;labelBackgroundColor=none;labelBorderColor=none;fontColor=#67AB9F;fillColor=#67AB9F;" parent="363" vertex="1"><mxGeometry x="1" y="0.5" width="46" height="14" relative="1" as="geometry"><mxPoint x="-92" y="-7" as="offset"/></mxGeometry></mxCell><mxCell id="365" value="Регистрация" style="dashed=0;shape=rect;strokeColor=none;fillColor=#00BCD4;resizeWidth=1;fontSize=20;fontColor=#FFFFFF;spacingTop=9;verticalAlign=top;align=left;spacingLeft=72;labelBackgroundColor=none;labelBorderColor=none;container=0;" parent="362" vertex="1"><mxGeometry width="358" height="60" relative="1" as="geometry"><mxPoint y="24" as="offset"/></mxGeometry></mxCell><mxCell id="373" value="" style="dashed=0;shape=rect;strokeColor=none;fillColor=#000000;resizeWidth=1;labelBackgroundColor=none;labelBorderColor=none;fontColor=#67AB9F;" parent="362" vertex="1"><mxGeometry y="1" width="358" height="48" relative="1" as="geometry"><mxPoint y="-48" as="offset"/></mxGeometry></mxCell><mxCell id="374" value="" style="dashed=0;shape=mxgraph.gmdl.back;strokeColor=#ffffff;fillColor=#000000;strokeWidth=2;labelBackgroundColor=none;labelBorderColor=none;fontColor=#67AB9F;" parent="373" vertex="1"><mxGeometry x="0.25" y="0.5" width="14" height="14" relative="1" as="geometry"><mxPoint x="-7" y="-7" as="offset"/></mxGeometry></mxCell><mxCell id="375" value="" style="shape=ellipse;strokeColor=#ffffff;fillColor=#000000;strokeWidth=2;labelBackgroundColor=none;labelBorderColor=none;fontColor=#67AB9F;" parent="373" vertex="1"><mxGeometry x="0.5" y="0.5" width="14" height="14" relative="1" as="geometry"><mxPoint x="-7" y="-7" as="offset"/></mxGeometry></mxCell><mxCell id="376" value="" style="shape=rect;strokeColor=#ffffff;fillColor=#000000;strokeWidth=2;labelBackgroundColor=none;labelBorderColor=none;fontColor=#67AB9F;" parent="373" vertex="1"><mxGeometry x="0.75" y="0.5" width="14" height="14" relative="1" as="geometry"><mxPoint x="-7" y="-7" as="offset"/></mxGeometry></mxCell><mxCell id="435" value="Зарегистрироваться" style="dashed=0;align=center;fontSize=12;shape=rect;fillColor=#67AB9F;strokeColor=none;fontStyle=1;shadow=1;labelBackgroundColor=none;fontColor=#000000;" parent="362" vertex="1"><mxGeometry x="87.5" y="545" width="160" height="36" as="geometry"/></mxCell><mxCell id="366" value="" style="dashed=0;shape=mxgraph.gmdl.preferences;strokeColor=none;fillColor=#ffffff;labelBackgroundColor=none;labelBorderColor=none;fontColor=#67AB9F;" parent="362" vertex="1"><mxGeometry x="876" y="84" width="24" height="16" as="geometry"><mxPoint x="16" y="20" as="offset"/></mxGeometry></mxCell><mxCell id="371" value="" style="dashed=0;shape=mxgraph.gmdl.search;strokeColor=#ffffff;fillColor=none;strokeWidth=2;labelBackgroundColor=none;labelBorderColor=none;fontColor=#67AB9F;" parent="362" vertex="1"><mxGeometry x="1153" y="84" width="16" height="16" as="geometry"><mxPoint x="-65" y="20" as="offset"/></mxGeometry></mxCell><mxCell id="372" value="" style="dashed=0;shape=mxgraph.gmdl.settings;strokeColor=none;fillColor=#ffffff;labelBackgroundColor=none;labelBorderColor=none;fontColor=#67AB9F;" parent="362" vertex="1"><mxGeometry x="1194" y="84" width="5" height="16" as="geometry"><mxPoint x="-24" y="20" as="offset"/></mxGeometry></mxCell><mxCell id="447" value="&lt;font&gt;Имя&lt;/font&gt;" style="strokeWidth=1;shadow=0;dashed=0;align=center;html=1;shape=mxgraph.mockup.forms.comboBox;strokeColor=#999999;fillColor=#ddeeff;align=left;fillColor2=#67AB9F;mainText=;fontColor=#CCCCCC;fontSize=17;spacingLeft=3;labelBackgroundColor=none;labelBorderColor=none;" parent="362" vertex="1"><mxGeometry x="10" y="120" width="340" height="30.38" as="geometry"/></mxCell><mxCell id="448" value="Имя:" style="dashed=0;shape=rect;fillColor=none;strokeColor=none;verticalLabelPosition=middle;align=left;verticalAlign=middle;fontSize=15;spacingLeft=72;fontColor=#000000;labelBackgroundColor=none;" parent="362" vertex="1"><mxGeometry y="90" width="130" height="30" as="geometry"/></mxCell><mxCell id="449" value="Фамилия" style="dashed=0;shape=rect;fillColor=none;strokeColor=none;verticalLabelPosition=middle;align=left;verticalAlign=middle;fontSize=15;spacingLeft=72;fontColor=#000000;labelBackgroundColor=none;" parent="362" vertex="1"><mxGeometry y="150.38" width="130" height="30" as="geometry"/></mxCell><mxCell id="450" value="&lt;font&gt;Фамилия&lt;/font&gt;" style="strokeWidth=1;shadow=0;dashed=0;align=center;html=1;shape=mxgraph.mockup.forms.comboBox;strokeColor=#999999;fillColor=#ddeeff;align=left;fillColor2=#67AB9F;mainText=;fontColor=#CCCCCC;fontSize=17;spacingLeft=3;labelBackgroundColor=none;labelBorderColor=none;" parent="362" vertex="1"><mxGeometry x="10" y="180.38" width="340" height="30.38" as="geometry"/></mxCell><mxCell id="451" value="&lt;font&gt;Login&lt;/font&gt;" style="strokeWidth=1;shadow=0;dashed=0;align=center;html=1;shape=mxgraph.mockup.forms.comboBox;strokeColor=#999999;fillColor=#ddeeff;align=left;fillColor2=#67AB9F;mainText=;fontColor=#CCCCCC;fontSize=17;spacingLeft=3;labelBackgroundColor=none;labelBorderColor=none;" parent="362" vertex="1"><mxGeometry x="10" y="240.76" width="340" height="30.38" as="geometry"/></mxCell><mxCell id="452" value="Логин:" style="dashed=0;shape=rect;fillColor=none;strokeColor=none;verticalLabelPosition=middle;align=left;verticalAlign=middle;fontSize=15;spacingLeft=72;fontColor=#000000;labelBackgroundColor=none;" parent="362" vertex="1"><mxGeometry y="210.76" width="130" height="30" as="geometry"/></mxCell><mxCell id="453" value="Введите код подтверждения из СМС:" style="dashed=0;shape=rect;fillColor=none;strokeColor=none;verticalLabelPosition=middle;align=left;verticalAlign=middle;fontSize=15;spacingLeft=72;fontColor=#000000;labelBackgroundColor=none;" parent="362" vertex="1"><mxGeometry y="470" width="130" height="30" as="geometry"/></mxCell><mxCell id="454" value="&lt;font&gt;Код из СМС&lt;/font&gt;" style="strokeWidth=1;shadow=0;dashed=0;align=center;html=1;shape=mxgraph.mockup.forms.comboBox;strokeColor=#999999;fillColor=#ddeeff;align=left;fillColor2=#67AB9F;mainText=;fontColor=#CCCCCC;fontSize=17;spacingLeft=3;labelBackgroundColor=none;labelBorderColor=none;" parent="362" vertex="1"><mxGeometry x="10" y="500" width="340" height="30.38" as="geometry"/></mxCell><mxCell id="455" value="&lt;font color=&quot;#cccccc&quot;&gt;Password&lt;/font&gt;" style="strokeWidth=1;shadow=0;dashed=0;align=center;html=1;shape=mxgraph.mockup.forms.comboBox;strokeColor=#999999;fillColor=#ddeeff;align=left;fillColor2=#67AB9F;mainText=;fontColor=#666666;fontSize=17;spacingLeft=3;labelBackgroundColor=none;" parent="362" vertex="1"><mxGeometry x="10" y="361.14" width="340" height="30" as="geometry"/></mxCell><mxCell id="456" value="Повторите пароль:" style="dashed=0;shape=rect;fillColor=none;strokeColor=none;verticalLabelPosition=middle;align=left;verticalAlign=middle;fontSize=15;spacingLeft=72;fontColor=#000000;labelBackgroundColor=none;" parent="362" vertex="1"><mxGeometry y="331.52" width="130" height="30" as="geometry"/></mxCell><mxCell id="457" value="Пароль:" style="dashed=0;shape=rect;fillColor=none;strokeColor=none;verticalLabelPosition=middle;align=left;verticalAlign=middle;fontSize=15;spacingLeft=72;fontColor=#000000;labelBackgroundColor=none;" parent="362" vertex="1"><mxGeometry y="271.14" width="130" height="30" as="geometry"/></mxCell><mxCell id="458" value="&lt;font color=&quot;#cccccc&quot;&gt;Password&lt;/font&gt;" style="strokeWidth=1;shadow=0;dashed=0;align=center;html=1;shape=mxgraph.mockup.forms.comboBox;strokeColor=#999999;fillColor=#ddeeff;align=left;fillColor2=#67AB9F;mainText=;fontColor=#666666;fontSize=17;spacingLeft=3;labelBackgroundColor=none;" parent="362" vertex="1"><mxGeometry x="10" y="300.76" width="340" height="30" as="geometry"/></mxCell><mxCell id="187" value="+7" style="strokeWidth=1;shadow=0;dashed=0;align=center;html=1;shape=mxgraph.mockup.forms.comboBox;strokeColor=#999999;fillColor=#FFFFFF;align=left;fillColor2=#FFFFFF;mainText=;fontColor=#CCCCCC;fontSize=17;spacingLeft=3;labelBackgroundColor=none;labelBorderColor=none;" parent="362" vertex="1"><mxGeometry x="11" y="440" width="340" height="30" as="geometry"/></mxCell><mxCell id="186" value="Телефон в формате +7(---)-------" style="dashed=0;shape=rect;fillColor=none;strokeColor=none;verticalLabelPosition=middle;align=left;verticalAlign=middle;fontSize=15;spacingLeft=72;fontColor=#000000;labelBackgroundColor=none;" parent="362" vertex="1"><mxGeometry y="413.62" width="130" height="30" as="geometry"/></mxCell><mxCell id="460" value="" style="dashed=0;labelPosition=right;align=left;shape=mxgraph.gmdl.checkbox;strokeColor=none;fillColor=#67AB9F;strokeWidth=2;sketch=0;labelBackgroundColor=none;labelBorderColor=none;fontColor=#000000;gradientColor=#FFFFFF;gradientDirection=north;" parent="362" vertex="1"><mxGeometry x="320" y="440" width="31" height="30" as="geometry"/></mxCell><mxCell id="463" value="" style="dashed=0;shape=rect;fillColor=#FFF2CC;strokeColor=none;labelBackgroundColor=none;labelBorderColor=none;fontColor=#67AB9F;gradientColor=#FFD966;" parent="1" vertex="1"><mxGeometry x="1200" y="40" width="358" height="642" as="geometry"/></mxCell><mxCell id="464" value="12:30" style="dashed=0;shape=rect;align=right;fillColor=#00A0B4;strokeColor=none;fontColor=#FFFFFF;spacingRight=4;spacingTop=1;fontStyle=0;fontSize=13;resizeWidth=1;labelBackgroundColor=none;labelBorderColor=none;" parent="463" vertex="1"><mxGeometry width="358" height="24" relative="1" as="geometry"/></mxCell><mxCell id="465" value="" style="dashed=0;shape=mxgraph.gmdl.top_bar;strokeColor=none;labelBackgroundColor=none;labelBorderColor=none;fontColor=#67AB9F;fillColor=#67AB9F;" parent="464" vertex="1"><mxGeometry x="1" y="0.5" width="46" height="14" relative="1" as="geometry"><mxPoint x="-92" y="-7" as="offset"/></mxGeometry></mxCell><mxCell id="466" value="Подтверждение заказа" style="dashed=0;shape=rect;strokeColor=none;fillColor=#00BCD4;resizeWidth=1;fontSize=20;fontColor=#FFFFFF;spacingTop=9;verticalAlign=top;align=left;spacingLeft=72;labelBackgroundColor=none;labelBorderColor=none;container=0;" parent="463" vertex="1"><mxGeometry width="358" height="60" relative="1" as="geometry"><mxPoint y="24" as="offset"/></mxGeometry></mxCell><mxCell id="467" value="" style="dashed=0;shape=rect;strokeColor=none;fillColor=#000000;resizeWidth=1;labelBackgroundColor=none;labelBorderColor=none;fontColor=#67AB9F;" parent="463" vertex="1"><mxGeometry y="1" width="358" height="48" relative="1" as="geometry"><mxPoint y="-48" as="offset"/></mxGeometry></mxCell><mxCell id="468" value="" style="dashed=0;shape=mxgraph.gmdl.back;strokeColor=#ffffff;fillColor=#000000;strokeWidth=2;labelBackgroundColor=none;labelBorderColor=none;fontColor=#67AB9F;" parent="467" vertex="1"><mxGeometry x="0.25" y="0.5" width="14" height="14" relative="1" as="geometry"><mxPoint x="-7" y="-7" as="offset"/></mxGeometry></mxCell><mxCell id="469" value="" style="shape=ellipse;strokeColor=#ffffff;fillColor=#000000;strokeWidth=2;labelBackgroundColor=none;labelBorderColor=none;fontColor=#67AB9F;" parent="467" vertex="1"><mxGeometry x="0.5" y="0.5" width="14" height="14" relative="1" as="geometry"><mxPoint x="-7" y="-7" as="offset"/></mxGeometry></mxCell><mxCell id="470" value="" style="shape=rect;strokeColor=#ffffff;fillColor=#000000;strokeWidth=2;labelBackgroundColor=none;labelBorderColor=none;fontColor=#67AB9F;" parent="467" vertex="1"><mxGeometry x="0.75" y="0.5" width="14" height="14" relative="1" as="geometry"><mxPoint x="-7" y="-7" as="offset"/></mxGeometry></mxCell><mxCell id="471" value="Подтвердить бронь" style="dashed=0;align=center;fontSize=12;shape=rect;fillColor=#67AB9F;strokeColor=none;fontStyle=1;shadow=1;labelBackgroundColor=none;fontColor=#000000;" parent="463" vertex="1"><mxGeometry x="10" y="545" width="160" height="36" as="geometry"/></mxCell><mxCell id="472" value="" style="dashed=0;shape=mxgraph.gmdl.preferences;strokeColor=none;fillColor=#ffffff;labelBackgroundColor=none;labelBorderColor=none;fontColor=#67AB9F;" parent="463" vertex="1"><mxGeometry x="876" y="84" width="24" height="16" as="geometry"><mxPoint x="16" y="20" as="offset"/></mxGeometry></mxCell><mxCell id="473" value="" style="dashed=0;shape=rect;strokeColor=none;fillColor=#F1FB8F;resizeWidth=1;labelBackgroundColor=none;labelBorderColor=none;fontColor=#67AB9F;" parent="463" vertex="1"><mxGeometry x="860" y="165" width="119" height="4" as="geometry"><mxPoint y="-3" as="offset"/></mxGeometry></mxCell><mxCell id="474" value="" style="dashed=0;shape=mxgraph.gmdl.search;strokeColor=#ffffff;fillColor=none;strokeWidth=2;labelBackgroundColor=none;labelBorderColor=none;fontColor=#67AB9F;" parent="463" vertex="1"><mxGeometry x="1153" y="84" width="16" height="16" as="geometry"><mxPoint x="-65" y="20" as="offset"/></mxGeometry></mxCell><mxCell id="475" value="" style="dashed=0;shape=mxgraph.gmdl.settings;strokeColor=none;fillColor=#ffffff;labelBackgroundColor=none;labelBorderColor=none;fontColor=#67AB9F;" parent="463" vertex="1"><mxGeometry x="1194" y="84" width="5" height="16" as="geometry"><mxPoint x="-24" y="20" as="offset"/></mxGeometry></mxCell><mxCell id="520" value="" style="rounded=0;whiteSpace=wrap;html=1;labelBackgroundColor=none;labelBorderColor=none;fontColor=#000000;fillColor=#FFF2CC;gradientColor=#FFD966;" parent="463" vertex="1"><mxGeometry x="19" y="100" width="320" height="420" as="geometry"/></mxCell><mxCell id="519" value="&lt;span style=&quot;font-size: 24px; font-weight: 700; text-align: center;&quot;&gt;Стол № 2&lt;/span&gt;&lt;h1&gt;6 мест&lt;/h1&gt;&lt;p&gt;&lt;span style=&quot;white-space: pre;&quot;&gt;&#9;&lt;/span&gt;Дмитрий, вы забронировали стол на 24 октября 2022 года, в 23 часа 10 минут на период 2 часа.&lt;br&gt;&lt;/p&gt;&lt;p&gt;&lt;span style=&quot;white-space: pre;&quot;&gt;&#9;&lt;/span&gt;Для окончания оформления бронирования стола проверьте все данные и подтвердите заявку, либо отмените. При подтверждении на Ваш номер телефона придёт СМС уведомление об успешном заказе стола в нашем ресторане.&lt;br&gt;&lt;/p&gt;" style="text;html=1;strokeColor=none;fillColor=none;spacing=5;spacingTop=-20;whiteSpace=wrap;overflow=hidden;rounded=0;labelBackgroundColor=none;labelBorderColor=none;fontColor=#000000;" parent="463" vertex="1"><mxGeometry x="30" y="110" width="300" height="400" as="geometry"/></mxCell><mxCell id="521" value="Изменить заказ" style="dashed=0;align=center;fontSize=12;shape=rect;fillColor=#67AB9F;strokeColor=none;fontStyle=1;shadow=1;labelBackgroundColor=none;fontColor=#000000;" parent="463" vertex="1"><mxGeometry x="190" y="545" width="160" height="36" as="geometry"/></mxCell></root></mxGraphModel></diagram></mxfile>